<?xml version="1.0" encoding="UTF-8"?>
<svg width="1000" height="1000" xmlns="http://www.w3.org/2000/svg" version="1.1">
  <rect width="100%" height="100%" fill="turquoise"/>
  <g stroke="white" stroke-width="1" fill="none">
    <path d="M166,289 L229,307 L225,390 L156,379 Z"/>
    <path d="M229,307 L311,293 L300,382 L225,390 Z"/>
    <path d="M300,382 L311,293 L390,305 L398,388 Z"/>
    <path d="M156,379 L225,390 L210,471 L143,460 Z"/>
    <path d="M398,388 L390,305 L468,320 L478,400 Z"/>
    <path d="M210,471 L225,390 L300,382 L282,468 Z"/>
    <path d="M282,468 L300,382 L398,388 L385,472 Z"/>
    <path d="M385,472 L398,388 L478,400 L463,481 Z"/>
  </g>
</svg>
